<svg id="_ÎÓÈ_1" data-name="—ÎÓÈ_1" xmlns="http://www.w3.org/2000/svg" viewBox="0 0 285.81 302.83"><defs><style>.cls-1{fill:#36a9e1;}.cls-2{fill:#e89cb5;}.cls-3{fill:#211006;}.cls-4{fill:#855b4d;}.cls-5{fill:#997163;}.cls-6{fill:#755246;}.cls-7{fill:#29235c;}.cls-8{fill:#4f2d11;}</style></defs><title>profile-01</title><circle class="cls-1" cx="142.91" cy="159.92" r="142.91"/><path class="cls-2" d="M253.18,250.83a142.93,142.93,0,0,1-220.54,0c1.16-21.79,7-40.71,26.13-53,9.57-6.13,22.95-10.23,37.77-12.79a277.87,277.87,0,0,1,46.37-3.6c30.62,0,65,4.12,84.15,16.39S252,229,253.18,250.83Z"/><path class="cls-3" d="M230.13,100.9c-1.9-4.69,2.54-7.06,2.62-13.19,0-2.67-1.71-5.63-3.95-7.52-2.88-2.42-6.37-3.4-9.47-5.39s-4.77-7.06-4.82-10.93c-.06-4.64.08-12.54-4.3-16.93-4-4-9.17-5.69-10.52-11.64-.66-2.89,0-5.82-2.45-8-3.28-2.88-6-1.5-8.31-5.9-1.48-2.85-1.37-5.16-4-7.41a32.67,32.67,0,0,0-8.71-4.93c-2.84-1.09-5.49-.93-8.44-1.41-3.62-.59-6.46-3-10-3.61-3.4-.56-6.16.52-9.5-.85C144.58,1.7,142.71-.4,138.3.07c-2.93.31-5.24,2-8,2.89-3.94,1.36-7.44-.2-11.32.59-6.77,1.38-5.78,5.17-10.27,7.84-2.12,1.27-5.88,1.95-8.2,3.2-3.82,2.05-2.32,5-3.32,8.66-.95,3.45-1,3.56-4.25,5-3,1.38-9.43,1.46-12.19,9.1-1,2.71-.51,6.51-2.15,7.55-2.74,1.75-4.17.6-7.23-.16-3.25-.8-5.25,0-6.8,2.36-.82,1.23-1.29,3.66-2.63,4.42-2.34,1.32-5.25.33-7.61,1.63A6,6,0,0,0,51,59.41a36.68,36.68,0,0,1,.65,7.51c-.22,4.31-5.16,4.48-4.38,9.41.71,4.53,8.67,4.09,5,9.12-1.4,1.93-3.51,3.69-4.71,6.14-1.93,3.94-1.61,6.67-.89,8.12,2.09,4.16,1.45,7.88,5.23,11,2.56,2.13,4.66,2,6.32,5.39,1,2-.53,4-1.1,6.86-.94,4.61.93,9.28,5.19,10.71,1.8.61,4.9.88,6.14,2.69,1.85,2.7.78,3.93,1,7.06.48,8,8.42,3.78,12.48,7.75,2.45,2.41.81,5.62,2.19,8.27,1.16,2.23,2.61,3.81,8.8,3.81,3,0,3.23,5,5.79,6.35,3.77,2,6-1.64,9.36,1.33,4.2,3.75,6,6.48,11.91,7.9,10.85,2.6,23,3.65,34,2.17,4.84-.65,10.68-1.68,14.93-4.27,2.24-1.36,2.67-2.55,4.15-4.38,1.62-2,3.36-2.77,5.19-4.39,2.88-2.55,2.74-6.17,5.32-8.74,4.05-4.05,11.05-4.86,14.71-9.71.64-.86.62-2.54,1.59-3.61,3.47-3.86,8.18,1.47,11.7-1.73,2.51-2.28,1.2-4.16,4.86-5,2.56-.61,3,.71,5.59-1.45,4.31-3.59,4.34-8.94,6.31-13.79,2.14-5.25,5.18-5.78,6.87-10.79a9.64,9.64,0,0,0-1-7.48C233,103.8,231.09,103.29,230.13,100.9Z"/><path class="cls-4" d="M182.86,109.71c0-8,4.46-17.69,10-17.69S204,93.55,204,101.54a55.23,55.23,0,0,1-3.43,16.22c-1.81,4.06-4.86,6.4-7.71,6.4C187.32,124.16,182.86,117.69,182.86,109.71Z"/><path class="cls-5" d="M142.91,29.13h0c-38.82,0-49.41,33.45-49.41,74.73,0,27.37,8.55,46.87,24.52,58.12,11.23,7.92,15.85,10.18,24.89,10.18h0c9,0,13.66-2.26,24.89-10.18,16-11.25,24.52-30.75,24.52-58.12C192.32,62.58,181.73,29.13,142.91,29.13Z"/><path class="cls-5" d="M103,109.71c0-8-4.46-17.69-10-17.69s-11.15,1.53-11.15,9.52a55.23,55.23,0,0,0,3.43,16.22c1.82,4.06,4.86,6.4,7.72,6.4C98.49,124.16,103,117.69,103,109.71Z"/><path class="cls-5" d="M166,177.07V160.13H119.85v16.94a11,11,0,0,1-4.9,9c-4.5,3.1-7.37,10.63-7.37,17.69,0,18.05,13.44,48,35.33,48,22.68,0,35.32-29.91,35.32-48,0-7.06-2.86-14.59-7.36-17.69A11,11,0,0,1,166,177.07Z"/><path class="cls-6" d="M166,163.27v15.89c-7.63,5-12.08,6.51-19.52,6.51-9,0-13.66-2.28-24.89-10.19-.58-.41-1.15-.82-1.7-1.24v-11c9.94,6.86,14.54,8.9,23.05,8.9S156,170.13,166,163.27Z"/><path class="cls-7" d="M192,112.18c.1-1.48.18-3,.23-4.51C192.25,109.11,192.17,110.6,192,112.18Z"/><path class="cls-4" d="M142.91,29.13c-.69,0-1.35,0-2,.05,34.23,1.16,43.66,34.14,43.66,74.68,0,27.37-7.88,46.87-22.59,58.12-9.55,7.3-13.92,9.79-21.07,10.13.65,0,1.32,0,2,0,9,0,13.66-2.26,24.89-10.18,16-11.25,24.52-30.75,24.52-58.12C192.32,62.58,181.73,29.13,142.91,29.13Z"/><path class="cls-3" d="M205.66,74c0-30.43-17-53.11-47.61-57.95-14.67-2.32-33.49-2.86-46.51,5.55-9,5.83-12.87,15.69-17.21,25A72.56,72.56,0,0,1,86,61.05c-4.52,5.77-11,9.67-14.6,16.19-6.68,12.15-2.44,28.15,7.89,36.93,2.53,2.15,9.78,6.91,13.38,4,3.27-2.65-.47-12.61-.22-16.5.28-4.39,1.88-8.31,2.6-12.51.76-4.47,5-5.89,7.35-6.69,4.54-1.57,5.28-6.25,8.45-8.75,3.46-2.71,8,.45,11.9-1.57,2.48-1.27,3.47-4.51,6.91-6.1,3.14-1.45,7.23-1.05,10.35-1.51,5.17-.76,6.85-2.94,11-6.12,2.46-1.87,9.06-10.63,11.67-10.82,1.94-.14,5.84,3.76,7.12,4.86,3.64,3.13,8.45,7.17,10.9,11.12,1.22,2,1.42,4.6,2.73,7.4,1.47,3.16,3.93,5.59,4.34,9a20.23,20.23,0,0,0,1.61,6.25c1.58,3.31.78,5,.64,8.24-.22,5.3,2.87,15.46,10.26,12.11C209.12,102.6,205.66,81.41,205.66,74Z"/><path class="cls-6" d="M190.18,92.77a8.55,8.55,0,0,0-.79-1.88,15.53,15.53,0,0,1-1.6-5.36c-.4-3-2.87-5-4.34-7.75-1.31-2.41-1.51-4.67-2.73-6.35-2.45-3.4-7.26-6.86-10.91-9.54-1.27-1-5.18-4.3-7.11-4.18-2.62.16-9.22,7.69-11.67,9.29-4.18,2.73-5.86,4.61-11,5.25-3.11.4-7.22,0-10.35,1.3-3.44,1.36-4.44,4.15-6.91,5.24-3.91,1.73-8.44-1-11.9,1.34-3.17,2.15-3.91,6.16-8.45,7.51-2.31.69-6.6,1.91-7.35,5.75-.66,3.36-2.11,6.51-2.54,10a10.7,10.7,0,0,1-.06-1.74c.28-4.38,1.89-8.3,2.6-12.49.75-4.48,5-5.91,7.35-6.7,4.54-1.57,5.28-6.25,8.45-8.75,3.46-2.71,8,.44,11.9-1.56,2.47-1.28,3.47-4.52,6.91-6.11,3.13-1.45,7.24-1,10.35-1.51,5.17-.75,6.85-2.94,11-6.12,2.45-1.87,9.05-10.63,11.67-10.82,1.93-.14,5.84,3.77,7.11,4.86,3.65,3.14,8.46,7.17,10.91,11.12,1.22,2,1.42,4.6,2.73,7.41,1.47,3.15,3.94,5.58,4.34,9a20.38,20.38,0,0,0,1.6,6.25C190.68,88.92,190.4,90.52,190.18,92.77Z"/><path class="cls-8" d="M188.94,21.4c-.53-1-9.08-2.37-10.28-2.64-6.27-1.4-11.84-1.33-17.83,1-2.61,1-4.9,2.17-7.7,2.56-2.65.37-7.89-.59-10.22,1-4.3,2.92-3.18,6.35-9,6.36-10.22,0-19.64-9.65-29.57-2.34-3.42,2.52-4.75,8.13-8.27,10-4.48,2.39-7.7-1.15-9.71,5.28-1.26,4-.8,5.78-5.21,7.78-2.48,1.12-6.72.54-8.73,2.46-3.15,3,.7,5.92,1.38,9.09.89,4.16-2.46,6.76-2.34,10.54.09,3,2.73,4.15,3.12,7.33.48,3.87,0,8.54-3.31,10.79-3,2-6.75,3.12-8.73,6.41-3,4.94,1.46,6.73,3.51,10.36,1.64,2.92,4.14,6.64,4.18,10,.06,4.17-1.66,3.44-4.21,6.53-1.91,2.31.94,5.73-.37,8.08A5.55,5.55,0,0,1,63,133.9a6.7,6.7,0,0,1-.67-.21c-4.26-1.44-6.12-6.09-5.2-10.71.58-2.83,2.1-4.82,1.11-6.86-1.66-3.41-3.75-3.27-6.33-5.39-3.78-3.15-3.13-6.85-5.22-11-.72-1.45-1-4.18.89-8.12,1.2-2.45,3.31-4.21,4.71-6.14,3.65-5-4.31-4.59-5-9.11-.78-4.94,4.17-5.11,4.37-9.43A36.06,36.06,0,0,0,51,59.4a6,6,0,0,1,3.36-6.22c2.35-1.3,5.26-.31,7.6-1.63,1.33-.76,1.81-3.19,2.63-4.42,1.54-2.34,3.55-3.17,6.8-2.36,3.06.76,4.49,1.91,7.23.16,1.63-1,1.17-4.84,2.15-7.55C83.56,29.74,90,29.67,93,28.28c3.24-1.47,3.31-1.58,4.26-5,1-3.64-.5-6.61,3.32-8.67,2.32-1.23,6.08-1.92,8.2-3.18,4.49-2.68,3.5-6.47,10.27-7.85,3.87-.79,7.37.77,11.33-.59,2.7-.94,5-2.58,7.95-2.89,4.41-.48,6.27,1.63,9.91,3.12,3.34,1.37,6.11.29,9.5.85,3.56.58,6.4,3,10,3.61,2.95.48,5.6.31,8.44,1.41A32.83,32.83,0,0,1,184.89,14C187.56,16.24,187.45,18.56,188.94,21.4Z"/></svg>